<?xml version="1.0" encoding="UTF-8"?>
<svg id="Layer_1" data-name="Layer 1" xmlns="http://www.w3.org/2000/svg" xmlns:xlink="http://www.w3.org/1999/xlink" viewBox="0 0 640 480">
  <defs>
    <style>
      .cls-1 {
        fill: #ff9c00;
      }

      .cls-1, .cls-2, .cls-3, .cls-4 {
        stroke-width: 0px;
      }

      .cls-2 {
        fill: none;
      }

      .cls-3 {
        fill: #580a46;
      }

      .cls-4 {
        fill: #fff;
      }

      .cls-5 {
        clip-path: url(#clippath);
      }
    </style>
    <clipPath id="clippath">
      <rect class="cls-2" width="640" height="480"/>
    </clipPath>
  </defs>
  <g class="cls-5">
    <path class="cls-3" d="M95.24,15.24h449.52v449.52H95.24V15.24ZM231.27,82.77c-20.18,5.7-38.11,18.83-49.72,36.3-9.48,14.12-14.74,31.02-14.98,48.02,0,38.93,0,77.86,0,116.79-.04,8.52,4.79,16.73,11.96,21.24,6.06,4,13.92,5.09,20.84,2.91,8.02-2.38,14.61-9.03,16.88-17.08,1.4-4.56.97-9.39,1.03-14.09.03-36.86-.04-73.75.04-110.61.58-17.37,14.62-32.87,31.69-35.63,10.27-1.8,21.28.55,29.67,6.8,9.76,6.92,15.78,18.66,15.85,30.6.04,36.88,0,73.76.02,110.64.04,3.84-.32,7.76.77,11.5,2.44,9.46,10.81,17.1,20.46,18.65,9.13,1.62,18.89-2.48,24.34-9.95,3.44-4.49,5.16-10.18,5.13-15.81,0-38.65.02-77.3,0-115.95.18-12.61,7.4-24.64,18.05-31.25,11.24-7.1,26.2-7.71,38.02-1.68,12.65,6.22,21.14,19.82,21.14,33.93.13,39.19,0,78.39.07,117.58.47,12.38,11.52,23.01,23.84,23.43,13.94,1.01,26.92-11.39,26.79-25.32.14-37.43.02-74.85.06-112.27-.03-10.92-1.34-21.91-5.03-32.25-6.92-19.87-21.05-37.14-39.27-47.69-16.06-9.48-35.2-13.63-53.75-11.77-20.78,1.89-40.79,11.46-55.26,26.51-8.17-8.16-17.73-14.98-28.37-19.54-18.82-8.23-40.51-9.64-60.26-3.98M381.2,334.6c-2.12,1.32-2.12,4.06-2.17,6.28.02,16.72.02,33.46,0,50.19.04,2.21.06,4.9,2.11,6.3,2.93,2.12,8.62,1.2,9.21-2.89.49-8.14-.46-16.36.48-24.47.92-6.45,8.75-10.16,14.45-7.29,2.84,1.56,3.57,5.05,3.61,8.02.02,6.77,0,13.53-.02,20.29.04,1.65-.08,3.44.82,4.92,2.41,4.14,10.54,3.04,10.56-2.26.12-8.22.04-16.43.04-24.65-.16-5.42-1.83-11.69-7.01-14.38-7.5-3.72-17.85-2.03-22.85,5.01.02-7.15.07-14.31,0-21.47-.08-4.49-6.04-5.68-9.22-3.62M166.87,369.14c-.19,6.71,0,13.42-.09,20.13.05,2.75-.55,6.23,2.07,8.05,2.91,2.64,8.29.31,8.21-3.66.16-7.93-.04-15.86.07-23.79.15-3.54,3.17-6.8,6.75-6.98,4.14-.57,8.28,2.9,8.35,7.09.1,7.84-.04,15.69.04,23.53,0,2.27,1.76,4.37,3.99,4.79,2.91.82,6.15-1.68,6.25-4.67.21-7.93-.04-15.86.1-23.78.07-3.91,3.82-7.29,7.71-6.96,3.8-.1,7.23,3.3,7.36,7.08.17,7.85-.04,15.71.07,23.56-.13,3.26,3.55,5.82,6.58,4.65,2.32-.56,3.71-2.96,3.68-5.24.06-7.62.1-15.25-.03-22.86-.05-7.46-5.23-14.54-12.4-16.68-6.24-2.03-13.49-.33-18.11,4.34-3.68-3.32-8.51-5.48-13.53-5.15-8.83.09-16.67,7.75-17.06,16.57M240.85,361.02c-5.82,8.03-6.06,19.81-.69,28.12,4.68,7.08,13.71,9.69,21.82,9.25,4.99-.45,10.24-1.44,14.34-4.51,2.4-1.75,2.62-6.21-.34-7.49-3.16-1-5.8,1.68-8.74,2.36-5.19,1.35-11.48,1.67-15.85-1.97-2.61-2.06-3.45-5.41-4.12-8.49,8.91-.04,17.83.05,26.75-.04,1.9,0,4.59-.61,4.64-2.97.34-7.67-2.57-16.19-9.61-20.07-9.14-5-21.97-2.75-28.2,5.81M290.14,360.28c-5.01,6.02-6.01,14.52-4.3,21.98,1.41,6.29,6.03,11.72,12.04,14.11,7.65,3.03,16.51,2.64,24.04-.61,2.3-1.05,4.99-2.81,4.93-5.67.18-1.74-1-3.28-2.58-3.87-2.99-.55-5.38,1.78-8.14,2.48-4.98,1.37-10.81,1.69-15.28-1.32-3.04-2.02-4.24-5.67-4.9-9.08,8.83-.06,17.67.03,26.5-.03,2.03,0,4.81-.55,4.93-3.08.26-7.15-2.19-14.98-8.34-19.17-8.88-5.86-22.15-4.09-28.89,4.27M348.66,353.04c-3.88.66-7.82,2.18-10.49,5.19-4.64,4.77-4.42,13.81,1.28,17.66,5.67,3.92,13.08,2.89,19.21,5.57,3.15,1.45,2.64,6.15-.27,7.58-4.04,2.11-8.87,1.25-13.13.33-3.09-.58-5.79-3.07-9.06-2.45-2.57,1.1-3.07,4.74-1.21,6.7,1.88,1.9,4.56,2.71,7.06,3.49,6.26,1.52,12.99,1.96,19.21,0,4.05-1.32,7.88-4.17,9.23-8.35,1.49-4.49.75-10.31-3.4-13.15-5.63-3.97-12.97-3.23-19.23-5.5-2.49-1.07-3.42-4.41-1.75-6.57,2.23-3.01,6.47-3.05,9.85-2.7,3.47.25,6.47,2.12,9.72,3.15,3.84.45,5.99-5.37,2.77-7.51-5.85-3.6-13.09-4.57-19.8-3.48M445.17,353.13c-5.48,1.02-10.64,4.2-13.55,9.03-3.73,6.13-4.18,13.83-2.53,20.69,1.68,6.94,7.22,12.86,14.2,14.62,8.04,2.08,17.68,1.03,23.71-5.15,4.36-4.16,6.07-10.36,6.21-16.22.1-6.18-1.54-12.76-6.08-17.2-5.55-5.83-14.35-7.19-21.97-5.75"/>
    <path class="cls-3" d="M250.32,364.24c3.48-4.28,10.46-5.05,14.85-1.79,2.77,2.14,3.59,5.72,4.03,9.02-7.31,0-14.63.05-21.94-.03.69-2.51,1.27-5.2,3.06-7.2"/>
    <path class="cls-3" d="M298.4,365.07c3.28-5.04,11.11-6.18,15.73-2.4,2.56,2.17,3.31,5.64,3.76,8.81-7.29,0-14.57.02-21.86,0,.47-2.23.99-4.53,2.37-6.39"/>
    <path class="cls-3" d="M447.67,361.76c3.83-1.08,8.31-.06,10.9,3.07,3.23,3.78,3.24,9.1,2.91,13.78-.39,3.93-2.23,8.17-5.97,9.96-4.62,2.42-10.99.84-13.65-3.73-2.36-4.08-2.48-9.1-1.8-13.65.63-4.17,3.3-8.41,7.61-9.43"/>
    <path class="cls-1" d="M231.27,82.77c19.75-5.66,41.44-4.25,60.26,3.98,10.63,4.57,20.2,11.39,28.37,19.54,14.47-15.05,34.48-24.62,55.26-26.51,18.55-1.86,37.69,2.29,53.75,11.77,18.22,10.55,32.35,27.82,39.27,47.69,3.69,10.33,5,21.33,5.03,32.25-.04,37.43.08,74.85-.06,112.27.12,13.93-12.85,26.33-26.8,25.32-12.32-.42-23.36-11.05-23.84-23.43-.08-39.19.06-78.39-.07-117.58,0-14.11-8.49-27.71-21.14-33.92-11.83-6.03-26.79-5.43-38.02,1.68-10.65,6.6-17.88,18.64-18.05,31.25.03,38.65,0,77.3,0,115.95.04,5.64-1.69,11.32-5.13,15.81-5.44,7.46-15.21,11.56-24.34,9.95-9.66-1.54-18.02-9.18-20.46-18.65-1.09-3.74-.74-7.66-.77-11.5-.02-36.88.02-73.76-.02-110.64-.07-11.94-6.09-23.68-15.85-30.6-8.39-6.25-19.4-8.6-29.68-6.79-17.07,2.76-31.11,18.26-31.69,35.63-.08,36.86,0,73.75-.04,110.61-.05,4.71.38,9.54-1.03,14.09-2.27,8.06-8.86,14.71-16.88,17.09-6.93,2.19-14.78,1.1-20.84-2.91-7.17-4.5-12-12.71-11.96-21.24.02-38.93,0-77.86,0-116.79.24-17.01,5.5-33.91,14.98-48.02,11.61-17.46,29.54-30.6,49.72-36.3"/>
    <path class="cls-4" d="M381.2,334.6c3.18-2.06,9.14-.88,9.22,3.62.08,7.15.03,14.31,0,21.47,5-7.04,15.35-8.73,22.84-5.01,5.18,2.7,6.86,8.96,7.02,14.38,0,8.22.09,16.44-.04,24.65-.02,5.29-8.15,6.4-10.56,2.26-.89-1.47-.77-3.26-.82-4.92.03-6.76.04-13.52.02-20.29-.03-2.98-.77-6.46-3.61-8.02-5.7-2.87-13.53.83-14.45,7.29-.94,8.11,0,16.33-.48,24.47-.59,4.09-6.28,5.01-9.21,2.89-2.05-1.4-2.07-4.09-2.11-6.3.02-16.73.02-33.47,0-50.19.05-2.21.04-4.95,2.17-6.28"/>
    <path class="cls-4" d="M166.87,369.14c.39-8.81,8.23-16.48,17.06-16.57,5.02-.33,9.85,1.83,13.53,5.15,4.63-4.67,11.87-6.36,18.11-4.34,7.16,2.14,12.34,9.23,12.4,16.68.13,7.61.09,15.24.03,22.86.04,2.28-1.36,4.68-3.68,5.24-3.03,1.17-6.71-1.4-6.58-4.65-.1-7.86.1-15.72-.07-23.57-.12-3.78-3.56-7.17-7.36-7.08-3.89-.33-7.64,3.06-7.71,6.96-.14,7.92.11,15.86-.1,23.78-.1,2.99-3.34,5.49-6.25,4.67-2.23-.41-3.99-2.52-3.99-4.79-.07-7.84.06-15.69-.03-23.53-.07-4.2-4.21-7.67-8.35-7.09-3.58.18-6.6,3.44-6.75,6.98-.11,7.93.09,15.86-.07,23.79.08,3.97-5.3,6.3-8.21,3.66-2.62-1.82-2.02-5.3-2.07-8.05.1-6.72-.1-13.42.09-20.13"/>
    <path class="cls-4" d="M240.85,361.02c6.23-8.56,19.06-10.81,28.2-5.81,7.03,3.88,9.95,12.4,9.61,20.07-.05,2.35-2.75,2.97-4.64,2.97-8.92.1-17.84,0-26.75.04.67,3.08,1.51,6.43,4.12,8.49,4.36,3.64,10.66,3.33,15.85,1.98,2.94-.68,5.58-3.36,8.74-2.36,2.96,1.28,2.75,5.74.34,7.49-4.1,3.07-9.35,4.07-14.34,4.51-8.1.44-17.14-2.17-21.82-9.25-5.36-8.31-5.13-20.09.69-28.12M250.32,364.24c-1.79,2-2.37,4.69-3.06,7.2,7.31.08,14.63.03,21.94.03-.44-3.29-1.26-6.87-4.03-9.02-4.4-3.26-11.38-2.49-14.85,1.79"/>
    <path class="cls-4" d="M290.14,360.28c6.74-8.36,20.02-10.13,28.89-4.27,6.15,4.19,8.6,12.02,8.34,19.17-.12,2.53-2.91,3.09-4.93,3.08-8.83.06-17.66-.03-26.5.03.66,3.41,1.86,7.06,4.9,9.08,4.47,3.01,10.3,2.69,15.28,1.32,2.76-.69,5.15-3.03,8.14-2.47,1.58.6,2.77,2.13,2.58,3.87.07,2.86-2.62,4.62-4.92,5.67-7.52,3.25-16.38,3.63-24.04.61-6.01-2.39-10.62-7.81-12.04-14.11-1.71-7.45-.71-15.95,4.3-21.98M298.4,365.07c-1.38,1.86-1.9,4.16-2.37,6.39,7.29.03,14.57,0,21.86,0-.45-3.17-1.2-6.64-3.76-8.81-4.63-3.78-12.45-2.63-15.73,2.4"/>
    <path class="cls-4" d="M348.66,353.04c6.71-1.09,13.95-.12,19.8,3.48,3.21,2.13,1.07,7.95-2.77,7.5-3.25-1.03-6.25-2.9-9.72-3.15-3.38-.35-7.62-.32-9.85,2.69-1.67,2.16-.75,5.5,1.75,6.57,6.26,2.26,13.6,1.53,19.23,5.5,4.14,2.84,4.89,8.67,3.4,13.15-1.34,4.18-5.18,7.03-9.23,8.35-6.22,1.95-12.95,1.51-19.21,0-2.5-.78-5.18-1.59-7.06-3.49-1.86-1.96-1.36-5.6,1.21-6.7,3.27-.62,5.97,1.87,9.06,2.45,4.26.92,9.09,1.78,13.13-.33,2.91-1.42,3.42-6.13.27-7.58-6.13-2.69-13.54-1.65-19.21-5.57-5.7-3.86-5.92-12.9-1.28-17.67,2.67-3.01,6.61-4.53,10.49-5.19"/>
    <path class="cls-4" d="M445.17,353.13c7.62-1.44,16.42-.08,21.97,5.75,4.54,4.43,6.18,11.02,6.07,17.2-.13,5.87-1.84,12.06-6.21,16.23-6.03,6.18-15.67,7.23-23.71,5.15-6.98-1.76-12.51-7.67-14.2-14.62-1.65-6.86-1.2-14.56,2.53-20.68,2.91-4.83,8.07-8.01,13.55-9.03M447.67,361.76c-4.31,1.02-6.98,5.26-7.61,9.43-.68,4.55-.56,9.57,1.8,13.65,2.66,4.57,9.04,6.15,13.65,3.73,3.74-1.79,5.58-6.02,5.97-9.96.33-4.69.33-10-2.91-13.78-2.59-3.13-7.08-4.15-10.9-3.07"/>
  </g>
</svg>