<?xml version="1.0" encoding="UTF-8"?>
<svg id="Layer_1" data-name="Layer 1" xmlns="http://www.w3.org/2000/svg" viewBox="0 0 567 130.25">
  <defs>
    <style>
      .cls-1 {
        fill: #4a6034;
      }

      .cls-2 {
        fill: none;
        stroke: #4a6034;
        stroke-miterlimit: 10;
        stroke-width: 2px;
      }
    </style>
  </defs>
  <rect class="cls-2" x="1" y="1" width="565" height="128.25" rx="64.12" ry="64.12"/>
  <g>
    <path class="cls-1" d="M113.83,67.93c1.35,1.72,2.02,3.89,2.02,6.51,0,3.51-1.32,6.21-3.96,8.1-2.64,1.89-6.49,2.83-11.54,2.83h-19.32v-40.49h18.16c4.63,0,8.21.93,10.73,2.78,2.53,1.85,3.79,4.42,3.79,7.69,0,2.12-.49,3.95-1.48,5.5-.98,1.54-2.31,2.72-3.96,3.53,2.35.66,4.2,1.84,5.55,3.56ZM86.81,49.56v12.96h11.86c2.97,0,5.25-.55,6.85-1.65,1.6-1.1,2.4-2.71,2.4-4.83s-.8-3.73-2.4-4.83c-1.6-1.1-3.89-1.65-6.85-1.65h-11.86ZM107.52,79.07c1.66-1.08,2.49-2.78,2.49-5.09,0-4.51-3.3-6.77-9.89-6.77h-13.31v13.48h13.31c3.28,0,5.75-.54,7.4-1.62Z"/>
    <path class="cls-1" d="M128.98,81.21c-3.01-3.08-4.51-7.52-4.51-13.31v-23.02h5.79v22.79c0,8.68,3.8,13.02,11.4,13.02,3.7,0,6.54-1.07,8.5-3.21,1.97-2.14,2.95-5.41,2.95-9.81v-22.79h5.61v23.02c0,5.82-1.5,10.27-4.51,13.33-3.01,3.07-7.21,4.6-12.61,4.6s-9.6-1.54-12.61-4.63Z"/>
    <path class="cls-1" d="M177.87,49.91h-13.88v-5.03h33.49v5.03h-13.88v35.46h-5.73v-35.46Z"/>
    <path class="cls-1" d="M212.4,49.91h-13.88v-5.03h33.49v5.03h-13.88v35.46h-5.73v-35.46Z"/>
    <path class="cls-1" d="M244.97,83.14c-3.28-1.79-5.85-4.27-7.72-7.43-1.87-3.16-2.81-6.69-2.81-10.59s.93-7.42,2.81-10.59c1.87-3.16,4.44-5.64,7.72-7.43,3.28-1.79,6.96-2.69,11.05-2.69s7.71.9,10.99,2.69c3.28,1.79,5.84,4.26,7.69,7.4,1.85,3.14,2.78,6.68,2.78,10.62s-.93,7.47-2.78,10.62c-1.85,3.14-4.42,5.61-7.69,7.4-3.28,1.79-6.94,2.69-10.99,2.69s-7.77-.9-11.05-2.69ZM264.03,78.66c2.37-1.35,4.24-3.21,5.61-5.58,1.37-2.37,2.05-5.02,2.05-7.95s-.69-5.58-2.05-7.95c-1.37-2.37-3.24-4.23-5.61-5.58-2.37-1.35-5.04-2.02-8.01-2.02s-5.66.68-8.07,2.02c-2.41,1.35-4.3,3.21-5.67,5.58-1.37,2.37-2.05,5.02-2.05,7.95s.68,5.58,2.05,7.95c1.37,2.37,3.26,4.23,5.67,5.58,2.41,1.35,5.1,2.03,8.07,2.03s5.64-.67,8.01-2.03Z"/>
    <path class="cls-1" d="M321.16,44.88v40.49h-4.74l-24.3-30.2v30.2h-5.79v-40.49h4.74l24.3,30.2v-30.2h5.79Z"/>
    <path class="cls-1" d="M356.91,49.91h-13.88v-5.03h33.49v5.03h-13.88v35.46h-5.73v-35.46Z"/>
    <path class="cls-1" d="M412.21,80.34v5.03h-29.39v-40.49h28.58v5.03h-22.79v12.44h20.3v4.92h-20.3v13.07h23.6Z"/>
    <path class="cls-1" d="M446.58,85.37l-12.15-16.72-11.98,16.72h-6.65l15.21-20.77-14.29-19.73h6.6l11.34,15.56,11.22-15.56h6.31l-14.29,19.55,15.33,20.94h-6.65Z"/>
    <path class="cls-1" d="M466.36,49.91h-13.88v-5.03h33.5v5.03h-13.88v35.46h-5.73v-35.46Z"/>
  </g>
</svg>